# Blender v2.82 (sub 7) OBJ File: ''
# www.blender.org
mtllib city.mtl
o city_towerSquare_middleC
v -0.500192 -0.000000 0.500192
v 0.500192 0.000000 -0.500192
v 0.500192 -0.000000 0.500192
v -0.500192 0.000000 -0.500192
v -0.500192 0.125000 -0.500192
v -0.500192 0.139601 -0.192843
v -0.500192 0.257332 -0.500192
v -0.500192 0.125000 0.500192
v -0.500192 0.139601 0.192843
v -0.500192 0.257332 0.192843
v -0.500192 0.257332 0.500193
v -0.500192 0.257332 -0.192843
v -0.192843 0.139601 0.500192
v 0.192843 0.139601 0.500192
v -0.192843 0.257332 0.500193
v 0.500192 0.125000 0.500192
v 0.500192 0.257332 0.500193
v 0.192843 0.257332 0.500193
v 0.500192 0.139601 0.192843
v 0.500192 0.257332 0.192843
v 0.500192 0.139601 -0.192843
v 0.500192 0.125000 -0.500192
v 0.500192 0.257332 -0.192843
v 0.500192 0.257332 -0.500192
v -0.192843 0.139601 -0.500192
v -0.192843 0.257332 -0.500192
v 0.192843 0.139601 -0.500192
v 0.192843 0.257332 -0.500192
v 0.476089 0.260927 -0.191276
v 0.476089 0.260927 -0.476088
v 0.192597 0.260927 -0.476088
v -0.192597 0.260927 -0.476088
v -0.476089 0.260927 -0.476088
v -0.476089 0.260927 -0.191276
v -0.476089 0.260926 0.476089
v -0.476089 0.260927 0.191276
v -0.192597 0.260926 0.476089
v 0.476089 0.260927 0.191276
v 0.476089 0.260926 0.476089
v 0.192597 0.260926 0.476089
v -0.476089 0.123439 0.476089
v -0.192597 0.144931 0.476089
v 0.476089 0.123439 0.476089
v 0.192597 0.144931 0.476089
v 0.476089 0.123439 -0.476089
v 0.476089 0.144931 -0.191276
v 0.476089 0.144931 0.191276
v 0.192597 0.144931 -0.476088
v -0.476089 0.123439 -0.476089
v -0.192597 0.144931 -0.476088
v -0.476089 0.144931 0.191276
v -0.476089 0.144931 -0.191276
v -0.478629 0.011301 -0.478629
v 0.478629 0.011300 0.478629
v 0.478629 0.011301 -0.478629
v -0.478629 0.011300 0.478629
vt -17.125980 17.125980
vt 17.125980 -17.125980
vt 17.125980 17.125980
vt -17.125980 -17.125980
vt -17.125980 4.921260
vt -6.602714 9.842520
vt -17.125980 19.685040
vt 17.125980 4.921260
vt 6.602714 9.842520
vt 6.602714 19.685040
vt 17.125980 19.685040
vt -6.602714 19.685040
vt -17.125980 4.921260
vt -6.602714 9.842520
vt -17.125980 19.685040
vt 6.602714 9.842520
vt -6.602714 19.685040
vt 17.125980 4.921260
vt 17.125980 19.685040
vt 6.602714 19.685040
vt -17.125980 19.685040
vt -6.602714 9.842520
vt -6.602714 19.685040
vt -17.125980 4.921260
vt 6.602714 9.842520
vt 17.125980 4.921260
vt 6.602714 19.685040
vt 17.125980 19.685040
vt 17.125980 4.921260
vt 6.602714 9.842520
vt -17.125980 4.921260
vt 17.125980 19.685040
vt 6.602714 19.685040
vt -6.602714 9.842520
vt -17.125980 19.685040
vt -6.602714 19.685040
vt -13.205430 -6.602714
vt -17.125980 -6.602714
vt -13.205430 -13.205430
vt -17.125980 -17.125980
vt -6.602714 -17.125980
vt -6.602714 -13.205430
vt 17.125980 -17.125980
vt 6.602714 -13.205430
vt 6.602714 -17.125980
vt 13.205430 -13.205430
vt 13.205430 -6.602714
vt 17.125980 -6.602714
vt 17.125980 6.602714
vt 13.205430 13.205430
vt 13.205430 6.602714
vt 17.125980 17.125980
vt 6.602714 17.125980
vt 6.602714 13.205430
vt -13.205430 6.602714
vt -17.125980 17.125980
vt -17.125980 6.602714
vt -13.205430 13.205430
vt -6.602714 17.125980
vt -6.602714 13.205430
vt 13.205430 3.937008
vt 6.602714 9.842520
vt -13.205430 3.937008
vt 13.205430 19.685040
vt 6.602714 19.685040
vt -6.602714 9.842520
vt -13.205430 19.685040
vt -6.602714 19.685040
vt -13.205430 3.937008
vt -6.602714 9.842520
vt -13.205430 19.685040
vt 13.205430 3.937008
vt 6.602714 9.842520
vt 6.602714 19.685040
vt 13.205430 19.685040
vt -6.602714 19.685040
vt 13.205430 3.937008
vt 6.602714 9.842520
vt -13.205430 3.937008
vt 13.205430 19.685040
vt 6.602714 19.685040
vt -6.602714 9.842520
vt -13.205430 19.685040
vt -6.602714 19.685040
vt -13.205430 19.685040
vt -6.602714 9.842520
vt -6.602714 19.685040
vt -13.205430 3.937008
vt 6.602714 9.842520
vt 13.205430 3.937008
vt 6.602714 19.685040
vt 13.205430 19.685040
vt 17.125980 -6.602714
vt 13.205430 6.602714
vt 13.205430 -6.602714
vt 17.125980 6.602714
vt -13.205430 19.685040
vt -17.125980 9.842520
vt -13.205430 9.842520
vt -17.125980 19.685040
vt 17.125980 19.685040
vt 13.205430 9.842520
vt 17.125980 9.842520
vt 13.205430 19.685040
vt -13.205430 -6.602714
vt -17.125980 6.602714
vt -17.125980 -6.602714
vt -13.205430 6.602714
vt -13.205430 19.685040
vt -17.125980 9.842520
vt -13.205430 9.842520
vt -17.125980 19.685040
vt 17.125980 19.685040
vt 13.205430 9.842520
vt 17.125980 9.842520
vt 13.205430 19.685040
vt 6.602714 -17.125980
vt -6.602714 -13.205430
vt -6.602714 -17.125980
vt 6.602714 -13.205430
vt 13.205430 19.685040
vt 17.125980 9.842520
vt 17.125980 19.685040
vt 13.205430 9.842520
vt -13.205430 9.842520
vt -17.125980 19.685040
vt -17.125980 9.842520
vt -13.205430 19.685040
vt 6.602714 13.205430
vt -6.602714 17.125980
vt -6.602714 13.205430
vt 6.602714 17.125980
vt -17.125980 19.685040
vt -13.205430 9.842520
vt -13.205430 19.685040
vt -17.125980 9.842520
vt 17.125980 9.842520
vt 13.205430 19.685040
vt 13.205430 9.842520
vt 17.125980 19.685040
vt 9.300363 -9.300363
vt -9.300363 9.300363
vt -9.300363 -9.300363
vt 9.300363 9.300363
vt -13.205430 -13.205430
vt -13.205430 13.205430
vt 13.205430 -13.205430
vt 13.205430 13.205430
vt -17.125980 -0.000000
vt 17.125980 -0.000000
vt 17.125980 -0.000000
vt -17.125980 -0.000000
vt -17.125980 -0.000000
vt 17.125980 -0.000000
vt 17.125980 -0.000000
vt -17.125980 -0.000000
vn 0.0000 -1.0000 -0.0000
vn -1.0000 0.0000 0.0000
vn -0.0000 -0.0000 1.0000
vn 1.0000 -0.0000 0.0000
vn 0.0000 0.0000 -1.0000
vn 0.1475 0.9891 0.0000
vn 0.0000 0.9891 -0.1475
vn -0.1475 0.9891 0.0000
vn 0.0000 0.9891 0.1475
vn -0.2159 0.9764 0.0000
vn -0.0649 -0.0000 0.9979
vn -0.0649 0.0000 -0.9979
vn 0.2159 0.9764 0.0000
vn 0.0649 0.0000 -0.9979
vn 0.0649 -0.0000 0.9979
vn 0.0000 0.9764 -0.2159
vn 0.9999 -0.0000 -0.0102
vn -0.9999 -0.0000 -0.0102
vn 0.0000 0.9764 0.2159
vn 0.9999 -0.0000 0.0102
vn -0.9999 0.0000 0.0102
vn 0.0000 1.0000 0.0000
vn -0.9997 -0.0226 -0.0000
vn 0.0000 -0.0226 0.9997
vn 0.9997 -0.0226 -0.0000
vn 0.0000 -0.0226 -0.9997
usemtl stone
s off
f 1/1/1 2/2/1 3/3/1
f 2/2/1 1/1/1 4/4/1
f 5/5/2 6/6/2 7/7/2
f 6/6/2 5/5/2 8/8/2
f 6/6/2 8/8/2 9/9/2
f 9/9/2 8/8/2 10/10/2
f 10/10/2 8/8/2 11/11/2
f 12/12/2 7/7/2 6/6/2
f 8/13/3 13/14/3 11/15/3
f 13/14/3 8/13/3 14/16/3
f 11/15/3 13/14/3 15/17/3
f 16/18/3 14/16/3 8/13/3
f 14/16/3 16/18/3 17/19/3
f 14/16/3 17/19/3 18/20/3
f 17/21/4 19/22/4 20/23/4
f 16/24/4 19/22/4 17/21/4
f 16/24/4 21/25/4 19/22/4
f 22/26/4 21/25/4 16/24/4
f 22/26/4 23/27/4 21/25/4
f 23/27/4 22/26/4 24/28/4
f 5/29/5 25/30/5 22/31/5
f 25/30/5 5/29/5 7/32/5
f 25/30/5 7/32/5 26/33/5
f 27/34/5 22/31/5 25/30/5
f 22/31/5 27/34/5 24/35/5
f 24/35/5 27/34/5 28/36/5
f 29/37/6 23/38/6 30/39/6
f 24/40/6 30/39/6 23/38/6
f 30/39/7 24/40/7 28/41/7
f 30/39/7 28/41/7 31/42/7
f 7/43/7 32/44/7 26/45/7
f 32/44/7 7/43/7 33/46/7
f 33/46/8 7/43/8 34/47/8
f 34/47/8 7/43/8 12/48/8
f 10/49/8 35/50/8 36/51/8
f 11/52/8 35/50/8 10/49/8
f 15/53/9 35/50/9 11/52/9
f 35/50/9 15/53/9 37/54/9
f 38/55/6 17/56/6 20/57/6
f 17/56/6 38/55/6 39/58/6
f 17/56/9 39/58/9 18/59/9
f 18/59/9 39/58/9 40/60/9
f 41/61/5 42/62/5 43/63/5
f 42/62/5 41/61/5 35/64/5
f 42/62/5 35/64/5 37/65/5
f 44/66/5 43/63/5 42/62/5
f 43/63/5 44/66/5 39/67/5
f 39/67/5 44/66/5 40/68/5
f 45/69/2 46/70/2 30/71/2
f 46/70/2 45/69/2 43/72/2
f 46/70/2 43/72/2 47/73/2
f 47/73/2 43/72/2 38/74/2
f 38/74/2 43/72/2 39/75/2
f 29/76/2 30/71/2 46/70/2
f 45/77/3 48/78/3 49/79/3
f 48/78/3 45/77/3 30/80/3
f 48/78/3 30/80/3 31/81/3
f 50/82/3 49/79/3 48/78/3
f 49/79/3 50/82/3 33/83/3
f 33/83/3 50/82/3 32/84/3
f 35/85/4 51/86/4 36/87/4
f 41/88/4 51/86/4 35/85/4
f 41/88/4 52/89/4 51/86/4
f 49/90/4 52/89/4 41/88/4
f 49/90/4 34/91/4 52/89/4
f 34/91/4 49/90/4 33/92/4
f 6/93/10 51/94/10 52/95/10
f 51/94/10 6/93/10 9/96/10
f 34/97/11 6/98/11 52/99/11
f 6/98/11 34/97/11 12/100/11
f 10/101/12 51/102/12 9/103/12
f 51/102/12 10/101/12 36/104/12
f 46/105/13 19/106/13 21/107/13
f 19/106/13 46/105/13 47/108/13
f 38/109/14 19/110/14 47/111/14
f 19/110/14 38/109/14 20/112/14
f 23/113/15 46/114/15 21/115/15
f 46/114/15 23/113/15 29/116/15
f 25/117/16 48/118/16 27/119/16
f 48/118/16 25/117/16 50/120/16
f 32/121/17 25/122/17 26/123/17
f 25/122/17 32/121/17 50/124/17
f 48/125/18 28/126/18 27/127/18
f 28/126/18 48/125/18 31/128/18
f 42/129/19 14/130/19 44/131/19
f 14/130/19 42/129/19 13/132/19
f 15/133/20 42/134/20 37/135/20
f 42/134/20 15/133/20 13/136/20
f 14/137/21 40/138/21 44/139/21
f 40/138/21 14/137/21 18/140/21
f 53/141/22 54/142/22 55/143/22
f 54/142/22 53/141/22 56/144/22
f 45/145/23 55/143/23 43/146/23
f 55/143/24 45/145/24 49/147/24
f 55/143/24 49/147/24 53/141/24
f 53/141/25 49/147/25 56/144/25
f 54/142/23 43/146/23 55/143/23
f 43/146/26 54/142/26 41/148/26
f 41/148/26 54/142/26 56/144/26
f 41/148/25 56/144/25 49/147/25
f 16/18/3 1/149/3 3/150/3
f 1/149/3 16/18/3 8/13/3
f 16/24/4 2/151/4 22/26/4
f 2/151/4 16/24/4 3/152/4
f 5/29/5 2/153/5 4/154/5
f 2/153/5 5/29/5 22/31/5
f 1/155/2 5/5/2 4/156/2
f 5/5/2 1/155/2 8/8/2
