# Blender v2.82 (sub 7) OBJ File: ''
# www.blender.org
mtllib general.mtl
o general_city_towerSquare_middleC
v 0.476089 0.516847 0.500193
v 0.476089 0.616941 0.500193
v 0.476089 0.616941 0.476089
v 0.476089 0.516847 0.476089
v 0.500192 0.516847 0.476089
v 0.500192 0.616941 0.476089
v 0.500192 0.616941 0.500193
v 0.500192 0.516847 0.500193
v 0.476089 0.257332 0.476089
v 0.500192 0.257332 0.476089
v 0.500192 0.257332 0.500193
v 0.476089 0.257332 0.500193
v 0.500192 0.520442 -0.476088
v 0.500192 0.620537 -0.476088
v 0.476088 0.620537 -0.476088
v 0.476088 0.520442 -0.476088
v 0.476088 0.520442 -0.500191
v 0.476088 0.620537 -0.500191
v 0.500192 0.620537 -0.500191
v 0.500192 0.520442 -0.500191
v 0.476088 0.260927 -0.476088
v 0.476088 0.260927 -0.500191
v 0.500192 0.260927 -0.500191
v 0.500192 0.260927 -0.476088
v -0.476090 0.520442 -0.500192
v -0.476090 0.620537 -0.500192
v -0.476090 0.620537 -0.476088
v -0.476090 0.520442 -0.476088
v -0.500193 0.520442 -0.476088
v -0.500193 0.620537 -0.476088
v -0.500193 0.620537 -0.500192
v -0.500193 0.520442 -0.500192
v -0.476090 0.260927 -0.476088
v -0.500193 0.260927 -0.476088
v -0.500193 0.260927 -0.500192
v -0.476090 0.260927 -0.500192
v -0.500194 0.520442 0.476090
v -0.500194 0.620537 0.476090
v -0.476090 0.620537 0.476090
v -0.476090 0.520442 0.476090
v -0.476090 0.520442 0.500193
v -0.476090 0.620537 0.500193
v -0.500194 0.620537 0.500193
v -0.500194 0.520442 0.500193
v -0.476090 0.260927 0.476090
v -0.476090 0.260927 0.500193
v -0.500194 0.260927 0.500193
v -0.500194 0.260927 0.476090
v -0.500192 -0.000000 0.500192
v 0.500192 0.000000 -0.500192
v 0.500192 -0.000000 0.500192
v -0.500192 0.000000 -0.500192
v -0.500192 0.125000 -0.500192
v -0.500192 0.139601 -0.192843
v -0.500192 0.257332 -0.500192
v -0.500192 0.125000 0.500192
v -0.500192 0.139601 0.192843
v -0.500192 0.257332 0.192843
v -0.500192 0.257332 0.500193
v -0.500192 0.257332 -0.192843
v -0.192843 0.139601 0.500192
v 0.192843 0.139601 0.500192
v -0.192843 0.257332 0.500193
v 0.500192 0.125000 0.500192
v 0.500192 0.257332 0.500193
v 0.192843 0.257332 0.500193
v 0.500192 0.139601 0.192843
v 0.500192 0.257332 0.192843
v 0.500192 0.139601 -0.192843
v 0.500192 0.125000 -0.500192
v 0.500192 0.257332 -0.192843
v 0.500192 0.257332 -0.500192
v -0.192843 0.139601 -0.500192
v -0.192843 0.257332 -0.500192
v 0.192843 0.139601 -0.500192
v 0.192843 0.257332 -0.500192
v 0.476089 0.260927 -0.191276
v 0.476089 0.260927 -0.476088
v 0.192597 0.260927 -0.476088
v -0.192597 0.260927 -0.476088
v -0.476089 0.260927 -0.476088
v -0.476089 0.260927 -0.191276
v -0.476089 0.260926 0.476089
v -0.476089 0.260927 0.191276
v -0.192597 0.260926 0.476089
v 0.476089 0.260927 0.191276
v 0.476089 0.260926 0.476089
v 0.192597 0.260926 0.476089
v -0.476089 0.123439 0.476089
v -0.192597 0.144931 0.476089
v 0.476089 0.123439 0.476089
v 0.192597 0.144931 0.476089
v 0.476089 0.123439 -0.476089
v 0.476089 0.144931 -0.191276
v 0.476089 0.144931 0.191276
v 0.192597 0.144931 -0.476088
v -0.476089 0.123439 -0.476089
v -0.192597 0.144931 -0.476088
v -0.476089 0.144931 0.191276
v -0.476089 0.144931 -0.191276
v -0.478629 0.011301 -0.478629
v 0.478629 0.011300 0.478629
v 0.478629 0.011301 -0.478629
v -0.478629 0.011300 0.478629
v 0.628198 0.516847 0.628199
v 0.628198 0.616941 0.628199
v 0.628198 0.520442 -0.628197
v 0.628198 0.620537 -0.628197
v -0.628199 0.520442 -0.628198
v -0.628199 0.620537 -0.628198
v -0.628200 0.520442 0.628199
v -0.628200 0.620537 0.628199
v 0.500192 0.000000 0.192843
v 0.500192 0.000000 -0.192843
v -0.192843 -0.000000 0.500192
v 0.192843 -0.000000 0.500192
v 0.192843 0.000000 -0.500192
v -0.192843 0.000000 -0.500192
v -0.500192 0.000000 -0.192843
v -0.500192 -0.000000 0.192843
v 0.019284 0.000000 -0.571934
v -0.019284 0.000000 -0.571934
v -0.571934 0.139601 -0.019284
v -0.571934 0.139601 0.019284
v -0.019284 0.139601 0.571934
v 0.019284 0.139601 0.571934
v 0.571934 0.000000 -0.019284
v 0.571934 0.139601 -0.019284
v 0.571934 0.139601 0.019284
v -0.019284 -0.000000 0.571934
v 0.019284 -0.000000 0.571934
v -0.019284 0.139601 -0.571934
v 0.019284 0.139601 -0.571934
v 0.571934 -0.000000 0.019284
v -0.571934 -0.000000 0.019284
v -0.571934 0.000000 -0.019284
vt 0.555415 0.000000
vt 0.625000 0.000000
vt 0.625000 0.250000
vt 0.555415 0.250000
vt 0.555415 0.500000
vt 0.625000 0.500000
vt 0.625000 0.500000
vt 0.555415 0.500000
vt 0.555415 0.750000
vt 0.555415 0.750000
vt 0.125000 0.500000
vt 0.375000 0.500000
vt 0.375000 0.750000
vt 0.125000 0.750000
vt 0.625000 0.500000
vt 0.875000 0.500000
vt 0.875000 0.750000
vt 0.625000 0.750000
vt 0.555415 0.750000
vt 0.555415 1.000000
vt 0.375000 1.000000
vt 0.555415 0.500000
vt 0.375000 0.250000
vt 0.375000 0.000000
vt 0.555415 0.000000
vt 0.625000 0.000000
vt 0.625000 0.250000
vt 0.555415 0.250000
vt 0.625000 0.750000
vt 0.875000 0.750000
vt 0.625000 0.750000
vt 0.625000 0.500000
vt 0.625000 0.750000
vt 0.625000 0.500000
vt 0.125000 0.500000
vt 0.375000 0.500000
vt 0.375000 0.750000
vt 0.125000 0.750000
vt 0.625000 0.500000
vt 0.875000 0.500000
vt 0.555415 0.750000
vt 0.555415 1.000000
vt 0.375000 1.000000
vt 0.555415 0.500000
vt 0.375000 0.250000
vt 0.375000 0.000000
vt 0.555415 0.000000
vt 0.625000 0.000000
vt 0.625000 0.250000
vt 0.555415 0.250000
vt 0.555415 0.000000
vt 0.625000 0.000000
vt 0.625000 0.500000
vt 0.125000 0.500000
vt 0.375000 0.500000
vt 0.375000 0.750000
vt 0.125000 0.750000
vt 0.875000 0.500000
vt 0.875000 0.750000
vt 0.625000 0.750000
vt 0.555415 1.000000
vt 0.375000 1.000000
vt 0.375000 0.250000
vt 0.375000 0.000000
vt 0.555415 0.000000
vt 0.625000 0.000000
vt 0.625000 0.250000
vt 0.555415 0.250000
vt 0.555415 1.000000
vt 0.555415 0.500000
vt 0.555415 0.500000
vt 0.125000 0.500000
vt 0.375000 0.500000
vt 0.375000 0.750000
vt 0.125000 0.750000
vt 0.875000 0.500000
vt 0.875000 0.750000
vt 0.555415 0.750000
vt 0.555415 1.000000
vt 0.375000 1.000000
vt 0.375000 0.250000
vt 0.375000 0.000000
vt -17.125980 17.125980
vt 17.125980 -17.125980
vt 17.125980 -8.562990
vt 17.125980 0.000000
vt 17.125980 17.125980
vt 8.562990 17.125980
vt 0.000000 17.125980
vt -17.125980 8.562990
vt -17.125980 0.000000
vt -17.125980 -17.125980
vt -8.562990 -17.125980
vt 0.000000 -17.125980
vt -17.125980 4.921260
vt -6.602714 9.842520
vt -17.125980 19.685040
vt 6.602714 9.842520
vt 17.125980 4.921260
vt 6.602714 19.685040
vt 17.125980 19.685040
vt -6.602714 19.685040
vt -17.125980 4.921260
vt -6.602714 9.842520
vt -17.125980 19.685040
vt -6.602714 19.685040
vt 6.602714 9.842520
vt 17.125980 4.921260
vt 17.125980 19.685040
vt 6.602714 19.685040
vt -17.125980 19.685040
vt -6.602714 9.842520
vt -6.602714 19.685040
vt -17.125980 4.921260
vt -17.125980 6.602714
vt 17.125980 -0.000000
vt 17.125980 4.921260
vt 6.602714 19.685040
vt 6.602714 9.842520
vt 17.125980 19.685040
vt 6.602714 9.842520
vt 17.125980 4.921260
vt 17.125980 19.685040
vt 6.602714 19.685040
vt -6.602714 9.842520
vt -17.125980 4.921260
vt -17.125980 19.685040
vt -6.602714 19.685040
vt -13.205430 -6.602714
vt -17.125980 -6.602714
vt -13.205430 -13.205430
vt -17.125980 -17.125980
vt -6.602714 -17.125980
vt -6.602714 -13.205430
vt 17.125980 -17.125980
vt 6.602714 -13.205430
vt 6.602714 -17.125980
vt 13.205430 -13.205430
vt 13.205430 -6.602714
vt 17.125980 -6.602714
vt 17.125980 6.602714
vt 13.205430 13.205430
vt 13.205430 6.602714
vt 17.125980 17.125980
vt 6.602714 17.125980
vt 6.602714 13.205430
vt -13.205430 6.602714
vt -17.125980 17.125980
vt -17.125980 6.602714
vt -13.205430 13.205430
vt -6.602714 17.125980
vt -6.602714 13.205430
vt 13.205430 3.937008
vt 6.602714 9.842520
vt -13.205430 3.937008
vt 13.205430 19.685040
vt 6.602714 19.685040
vt -6.602714 9.842520
vt -13.205430 19.685040
vt -6.602714 19.685040
vt -13.205430 3.937008
vt -6.602714 9.842520
vt -13.205430 19.685040
vt 13.205430 3.937008
vt 6.602714 9.842520
vt 6.602714 19.685040
vt 13.205430 19.685040
vt -6.602714 19.685040
vt 13.205430 3.937008
vt 6.602714 9.842520
vt -13.205430 3.937008
vt 13.205430 19.685040
vt 6.602714 19.685040
vt -6.602714 9.842520
vt -13.205430 19.685040
vt -6.602714 19.685040
vt -13.205430 19.685040
vt -6.602714 9.842520
vt -6.602714 19.685040
vt -13.205430 3.937008
vt 6.602714 9.842520
vt 13.205430 3.937008
vt 6.602714 19.685040
vt 13.205430 19.685040
vt 17.125980 -6.602714
vt 13.205430 6.602714
vt 13.205430 -6.602714
vt 17.125980 6.602714
vt -13.205430 19.685040
vt -17.125980 9.842520
vt -13.205430 9.842520
vt -17.125980 19.685040
vt 17.125980 19.685040
vt 13.205430 9.842520
vt 17.125980 9.842520
vt 13.205430 19.685040
vt -13.205430 -6.602714
vt -17.125980 -6.602714
vt -13.205430 6.602714
vt -13.205430 19.685040
vt -17.125980 9.842520
vt -13.205430 9.842520
vt -17.125980 19.685040
vt 17.125980 19.685040
vt 13.205430 9.842520
vt 17.125980 9.842520
vt 13.205430 19.685040
vt 6.602714 -17.125980
vt -6.602714 -13.205430
vt -6.602714 -17.125980
vt 6.602714 -13.205430
vt 13.205430 19.685040
vt 17.125980 9.842520
vt 17.125980 19.685040
vt 13.205430 9.842520
vt -13.205430 9.842520
vt -17.125980 19.685040
vt -17.125980 9.842520
vt -13.205430 19.685040
vt 6.602714 13.205430
vt -6.602714 17.125980
vt -6.602714 13.205430
vt 6.602714 17.125980
vt -17.125980 19.685040
vt -13.205430 9.842520
vt -13.205430 19.685040
vt -17.125980 9.842520
vt 17.125980 9.842520
vt 13.205430 19.685040
vt 13.205430 9.842520
vt 17.125980 19.685040
vt 9.300363 -9.300363
vt -9.300363 9.300363
vt -9.300363 -9.300363
vt 9.300363 9.300363
vt -13.205430 -13.205430
vt -13.205430 13.205430
vt 13.205430 -13.205430
vt 13.205430 13.205430
vt -17.125980 -0.000000
vt 17.125980 -8.562990
vt 17.125980 0.000000
vt 0.555415 1.000000
vt 0.555415 0.000000
vt 0.625000 0.000000
vt 0.555415 1.000000
vt 0.625000 0.750000
vt 0.555415 0.000000
vt 0.625000 0.000000
vt 0.555415 0.750000
vt 0.625000 0.750000
vt 0.625000 0.500000
vt 0.555415 0.500000
vt 0.555415 1.000000
vt 0.555415 0.750000
vt 0.555415 0.000000
vt 0.625000 0.000000
vt 0.625000 0.750000
vt 0.555415 0.750000
vt 0.555415 0.500000
vt 6.602714 17.125980
vt -6.602714 17.125980
vt -17.125980 -0.000000
vt -17.125980 8.562990
vt -17.125980 0.000000
vt 6.602714 9.842520
vt 8.562990 17.125980
vt -17.125980 -6.602714
vt -17.125980 6.602714
vt 0.000000 -17.125980
vt -8.562990 -17.125980
vt 6.602714 -17.125980
vt -6.602714 9.842520
vt -6.602714 9.842520
vt 0.000000 17.125980
vt -6.602714 9.842520
vt 17.125980 6.602714
vt -6.602714 -17.125980
vt 6.602714 9.842520
vt 17.125980 -6.602714
vn -1.0000 0.0000 0.0000
vn -0.7651 -0.0000 0.6439
vn 0.0000 -1.0000 0.0000
vn 0.0000 1.0000 0.0000
vn 0.0000 0.0000 1.0000
vn 1.0000 0.0000 0.0000
vn 0.0000 0.0000 -1.0000
vn 0.7651 -0.0000 0.6439
vn 0.6439 -0.0000 0.7651
vn 0.1475 0.9891 0.0000
vn 0.0000 0.9891 -0.1475
vn -0.1475 0.9891 0.0000
vn 0.0000 0.9891 0.1475
vn -0.2159 0.9764 0.0000
vn -0.0649 -0.0000 0.9979
vn -0.0649 0.0000 -0.9979
vn 0.2159 0.9764 0.0000
vn 0.0649 0.0000 -0.9979
vn 0.0649 -0.0000 0.9979
vn 0.0000 0.9764 -0.2159
vn 0.9999 -0.0000 -0.0102
vn -0.9999 -0.0000 -0.0102
vn 0.0000 0.9764 0.2159
vn 0.9999 0.0000 0.0102
vn -0.9999 0.0000 0.0102
vn -0.9997 -0.0226 -0.0000
vn 0.0000 -0.0226 0.9997
vn 0.9997 -0.0226 -0.0000
vn 0.0000 -0.0226 -0.9997
vn -0.6439 -0.0000 0.7651
vn -0.7651 0.0000 -0.6439
vn -0.6439 0.0000 -0.7651
vn 0.6439 0.0000 -0.7651
vn 0.7651 0.0000 -0.6439
vn 0.3820 0.0000 0.9242
vn -0.9242 -0.0000 -0.3820
vn -0.9242 -0.0000 0.3820
vn 0.3820 0.0000 -0.9242
vn 0.9242 -0.0000 0.3820
vn -0.3820 0.0000 -0.9242
vn 0.9242 -0.0000 -0.3820
vn -0.3820 0.0000 0.9242
usemtl stone.001
s off
f 1/1/1 2/2/1 3/3/1 4/4/1
f 29/5/2 30/6/2 110/7/2 109/8/2
f 32/9/3 29/5/3 109/10/3
f 9/11/3 10/12/3 11/13/3 12/14/3
f 6/15/4 3/16/4 2/17/4 7/18/4
f 11/13/5 8/19/5 1/20/5 12/21/5
f 10/12/6 5/22/6 8/19/6 11/13/6
f 9/23/7 4/4/7 5/22/7 10/12/7
f 12/24/1 1/1/1 4/4/1 9/23/1
f 13/25/5 14/26/5 15/27/5 16/28/5
f 19/29/4 14/30/4 108/31/4
f 42/32/4 43/33/4 112/34/4
f 21/35/3 22/36/3 23/37/3 24/38/3
f 18/39/4 15/40/4 14/30/4 19/29/4
f 23/37/6 20/41/6 13/42/6 24/43/6
f 22/36/7 17/44/7 20/41/7 23/37/7
f 21/45/1 16/28/1 17/44/1 22/36/1
f 24/46/5 13/25/5 16/28/5 21/45/5
f 25/47/6 26/48/6 27/49/6 28/50/6
f 14/26/8 13/25/8 107/51/8 108/52/8
f 6/15/4 7/18/4 106/53/4
f 33/54/3 34/55/3 35/56/3 36/57/3
f 30/6/4 27/58/4 26/59/4 31/60/4
f 35/56/7 32/9/7 25/61/7 36/62/7
f 34/55/1 29/5/1 32/9/1 35/56/1
f 33/63/5 28/50/5 29/5/5 34/55/5
f 36/64/6 25/47/6 28/50/6 33/63/6
f 37/65/7 38/66/7 39/67/7 40/68/7
f 3/16/7 6/15/7 5/22/7 4/4/7
f 13/42/3 20/41/3 107/69/3
f 41/70/9 42/32/9 112/34/9 111/71/9
f 45/72/3 46/73/3 47/74/3 48/75/3
f 42/32/4 39/76/4 38/77/4 43/33/4
f 47/74/1 44/78/1 37/79/1 48/80/1
f 46/73/5 41/70/5 44/78/5 47/74/5
f 45/81/6 40/68/6 41/70/6 46/73/6
f 48/82/7 37/65/7 40/68/7 45/81/7
f 15/40/1 18/39/1 17/44/1 16/28/1
f 27/58/5 30/6/5 29/5/5 28/50/5
f 39/76/6 42/32/6 41/70/6 40/68/6
f 49/83/3 50/84/3 114/85/3 113/86/3 51/87/3 116/88/3 115/89/3
f 50/84/3 49/83/3 120/90/3 119/91/3 52/92/3 118/93/3 117/94/3
f 53/95/1 54/96/1 55/97/1
f 57/98/1 56/99/1 58/100/1
f 58/100/1 56/99/1 59/101/1
f 60/102/1 55/97/1 54/96/1
f 56/103/5 61/104/5 59/105/5
f 59/105/5 61/104/5 63/106/5
f 62/107/5 64/108/5 65/109/5
f 62/107/5 65/109/5 66/110/5
f 65/111/6 67/112/6 68/113/6
f 64/114/6 67/112/6 65/111/6
f 113/86/6 67/115/6 64/114/6 51/116/6
f 70/117/6 71/118/6 69/119/6
f 71/118/6 70/117/6 72/120/6
f 73/121/7 53/122/7 55/123/7
f 73/121/7 55/123/7 74/124/7
f 75/125/7 70/117/7 50/84/7 117/94/7
f 70/126/7 75/125/7 72/127/7
f 72/127/7 75/125/7 76/128/7
f 77/129/10 71/130/10 78/131/10
f 72/132/10 78/131/10 71/130/10
f 78/131/11 72/132/11 76/133/11
f 78/131/11 76/133/11 79/134/11
f 55/135/11 80/136/11 74/137/11
f 80/136/11 55/135/11 81/138/11
f 81/138/12 55/135/12 82/139/12
f 82/139/12 55/135/12 60/140/12
f 58/141/12 83/142/12 84/143/12
f 59/144/12 83/142/12 58/141/12
f 63/145/13 83/142/13 59/144/13
f 83/142/13 63/145/13 85/146/13
f 86/147/10 65/148/10 68/149/10
f 65/148/10 86/147/10 87/150/10
f 65/148/13 87/150/13 66/151/13
f 66/151/13 87/150/13 88/152/13
f 89/153/7 90/154/7 91/155/7
f 90/154/7 89/153/7 83/156/7
f 90/154/7 83/156/7 85/157/7
f 92/158/7 91/155/7 90/154/7
f 91/155/7 92/158/7 87/159/7
f 87/159/7 92/158/7 88/160/7
f 93/161/1 94/162/1 78/163/1
f 94/162/1 93/161/1 91/164/1
f 94/162/1 91/164/1 95/165/1
f 95/165/1 91/164/1 86/166/1
f 86/166/1 91/164/1 87/167/1
f 77/168/1 78/163/1 94/162/1
f 93/169/5 96/170/5 97/171/5
f 96/170/5 93/169/5 78/172/5
f 96/170/5 78/172/5 79/173/5
f 98/174/5 97/171/5 96/170/5
f 97/171/5 98/174/5 81/175/5
f 81/175/5 98/174/5 80/176/5
f 83/177/6 99/178/6 84/179/6
f 89/180/6 99/178/6 83/177/6
f 89/180/6 100/181/6 99/178/6
f 97/182/6 100/181/6 89/180/6
f 97/182/6 82/183/6 100/181/6
f 82/183/6 97/182/6 81/184/6
f 54/185/14 99/186/14 100/187/14
f 99/186/14 54/185/14 57/188/14
f 82/189/15 54/190/15 100/191/15
f 54/190/15 82/189/15 60/192/15
f 58/193/16 99/194/16 57/195/16
f 99/194/16 58/193/16 84/196/16
f 94/197/17 67/115/17 69/198/17
f 67/115/17 94/197/17 95/199/17
f 86/200/18 67/201/18 95/202/18
f 67/201/18 86/200/18 68/203/18
f 71/204/19 94/205/19 69/206/19
f 94/205/19 71/204/19 77/207/19
f 73/208/20 96/209/20 75/210/20
f 96/209/20 73/208/20 98/211/20
f 80/212/21 73/213/21 74/214/21
f 73/213/21 80/212/21 98/215/21
f 96/216/22 76/217/22 75/218/22
f 76/217/22 96/216/22 79/219/22
f 90/220/23 62/221/23 92/222/23
f 62/221/23 90/220/23 61/223/23
f 63/224/24 90/225/24 85/226/24
f 90/225/24 63/224/24 61/227/24
f 62/228/25 88/229/25 92/230/25
f 88/229/25 62/228/25 66/231/25
f 101/232/4 102/233/4 103/234/4
f 102/233/4 101/232/4 104/235/4
f 93/236/26 103/234/26 91/237/26
f 103/234/27 93/236/27 97/238/27
f 103/234/27 97/238/27 101/232/27
f 101/232/28 97/238/28 104/235/28
f 102/233/26 91/237/26 103/234/26
f 91/237/29 102/233/29 89/239/29
f 89/239/29 102/233/29 104/235/29
f 89/239/28 104/235/28 97/238/28
f 61/104/5 56/99/5 49/83/5 115/89/5
f 69/119/6 114/85/6 50/240/6 70/117/6
f 113/86/3 114/85/3 127/241/3 134/242/3
f 1/20/3 8/19/3 105/243/3
f 2/2/30 1/1/30 105/244/30 106/245/30
f 37/79/3 44/78/3 111/246/3
f 30/6/4 31/60/4 110/7/4
f 7/18/4 2/17/4 106/247/4
f 38/66/31 37/65/31 111/248/31 112/249/31
f 20/41/3 17/44/3 107/250/3
f 43/33/4 38/77/4 112/251/4
f 17/44/32 18/39/32 108/252/32 107/253/32
f 25/61/3 32/9/3 109/254/3
f 18/39/4 19/29/4 108/252/4
f 8/19/3 5/22/3 105/255/3
f 26/48/33 25/47/33 109/256/33 110/257/33
f 31/60/4 26/59/4 110/258/4
f 44/78/3 41/70/3 111/259/3
f 5/22/34 6/15/34 106/53/34 105/260/34
f 62/221/4 61/223/4 125/261/4 126/262/4
f 118/93/7 52/263/7 53/122/7 73/208/7
f 119/91/3 120/90/3 135/264/3 136/265/3
f 51/116/5 64/114/5 62/107/5 116/88/5
f 119/91/1 54/96/1 53/95/1 52/263/1
f 116/88/35 62/107/35 126/266/35 131/267/35
f 57/188/1 120/90/1 49/83/1 56/99/1
f 127/241/6 128/268/6 129/269/6 134/242/6
f 121/270/7 122/271/7 132/272/7 133/273/7
f 126/262/5 125/274/5 130/275/5 131/267/5
f 123/276/1 136/265/1 135/264/1 124/277/1
f 54/96/36 119/91/36 136/265/36 123/276/36
f 120/90/37 57/188/37 124/277/37 135/264/37
f 75/125/38 117/94/38 121/270/38 133/273/38
f 117/94/3 118/93/3 122/271/3 121/270/3
f 73/208/4 75/210/4 133/278/4 132/272/4
f 67/115/39 113/86/39 134/242/39 129/269/39
f 118/93/40 73/208/40 132/272/40 122/271/40
f 114/85/41 69/119/41 128/279/41 127/241/41
f 57/188/4 54/185/4 123/280/4 124/277/4
f 115/89/3 116/88/3 131/267/3 130/275/3
f 61/104/42 115/89/42 130/275/42 125/274/42
f 69/198/4 67/115/4 129/269/4 128/268/4
