# Blender v2.82 (sub 7) OBJ File: ''
# www.blender.org
mtllib general.mtl
o general_city_towerSquare_middleC
v -0.500192 -0.000000 0.500192
v 0.500192 0.000000 -0.500192
v 0.500192 -0.000000 0.500192
v -0.500192 0.000000 -0.500192
v -0.500192 0.125000 -0.500192
v -0.500192 0.139601 -0.192843
v -0.500192 0.257332 -0.500192
v -0.500192 0.125000 0.500192
v -0.500192 0.139601 0.192843
v -0.500192 0.257332 0.192843
v -0.500192 0.257332 0.500193
v -0.500192 0.257332 -0.192843
v -0.192843 0.139601 0.500192
v 0.192843 0.139601 0.500192
v -0.192843 0.257332 0.500193
v 0.500192 0.125000 0.500192
v 0.500192 0.257332 0.500193
v 0.192843 0.257332 0.500193
v 0.500192 0.139601 0.192843
v 0.500192 0.257332 0.192843
v 0.500192 0.139601 -0.192843
v 0.500192 0.125000 -0.500192
v 0.500192 0.257332 -0.192843
v 0.500192 0.257332 -0.500192
v -0.192843 0.139601 -0.500192
v -0.192843 0.257332 -0.500192
v 0.192843 0.139601 -0.500192
v 0.192843 0.257332 -0.500192
v 0.476089 0.260927 -0.191276
v 0.476089 0.260927 -0.476088
v 0.192597 0.260927 -0.476088
v -0.192597 0.260927 -0.476088
v -0.476089 0.260927 -0.476088
v -0.476089 0.260927 -0.191276
v -0.476089 0.260926 0.476089
v -0.476089 0.260927 0.191276
v -0.192597 0.260926 0.476089
v 0.476089 0.260927 0.191276
v 0.476089 0.260926 0.476089
v 0.192597 0.260926 0.476089
v -0.476089 0.123439 0.476089
v -0.192597 0.144931 0.476089
v 0.476089 0.123439 0.476089
v 0.192597 0.144931 0.476089
v 0.476089 0.123439 -0.476089
v 0.476089 0.144931 -0.191276
v 0.476089 0.144931 0.191276
v 0.192597 0.144931 -0.476088
v -0.476089 0.123439 -0.476089
v -0.192597 0.144931 -0.476088
v -0.476089 0.144931 0.191276
v -0.476089 0.144931 -0.191276
v -0.478629 0.011301 -0.478629
v 0.478629 0.011300 0.478629
v 0.478629 0.011301 -0.478629
v -0.478629 0.011300 0.478629
v 0.476089 0.257332 0.500193
v 0.476089 0.616941 0.500193
v 0.476089 0.257332 0.476089
v 0.476089 0.616941 0.476089
v 0.500192 0.257332 0.500193
v 0.500192 0.616941 0.500193
v 0.500192 0.257332 0.476089
v 0.500192 0.616941 0.476089
v 0.476089 0.516847 0.500193
v 0.476089 0.516847 0.476089
v 0.500192 0.516847 0.476089
v 0.500192 0.516847 0.500193
v 0.485064 0.572926 0.373577
v 0.491217 0.572926 0.373577
v 0.485064 0.560863 0.373577
v 0.491217 0.560863 0.373577
v 0.500192 0.260927 -0.476088
v 0.500192 0.620537 -0.476088
v 0.476088 0.260927 -0.476088
v 0.476088 0.620537 -0.476088
v 0.500192 0.260927 -0.500191
v 0.500192 0.620537 -0.500191
v 0.476088 0.260927 -0.500191
v 0.476088 0.620537 -0.500191
v 0.500192 0.520442 -0.476088
v 0.476088 0.520442 -0.476088
v 0.476088 0.520442 -0.500191
v 0.500192 0.520442 -0.500191
v 0.373576 0.576521 -0.485063
v 0.373576 0.576521 -0.491216
v 0.373576 0.564458 -0.485063
v 0.373576 0.564458 -0.491216
v -0.476090 0.260927 -0.500192
v -0.476090 0.620537 -0.500192
v -0.476090 0.260927 -0.476088
v -0.476090 0.620537 -0.476088
v -0.500193 0.260927 -0.500192
v -0.500193 0.620537 -0.500192
v -0.500193 0.260927 -0.476088
v -0.500193 0.620537 -0.476088
v -0.476090 0.520442 -0.500192
v -0.476090 0.520442 -0.476088
v -0.500193 0.520442 -0.476088
v -0.500193 0.520442 -0.500192
v -0.485065 0.576521 -0.373576
v -0.491218 0.576521 -0.373576
v -0.485065 0.564458 -0.373576
v -0.491218 0.564458 -0.373576
v -0.500194 0.260927 0.476090
v -0.500194 0.620537 0.476090
v -0.476090 0.260927 0.476090
v -0.476090 0.620537 0.476090
v -0.500194 0.260927 0.500193
v -0.500194 0.620537 0.500193
v -0.476090 0.260927 0.500193
v -0.476090 0.620537 0.500193
v -0.500194 0.520442 0.476090
v -0.476090 0.520442 0.476090
v -0.476090 0.520442 0.500193
v -0.500194 0.520442 0.500193
v -0.373578 0.576521 0.485065
v -0.373578 0.576521 0.491218
v -0.373578 0.564458 0.485065
v -0.373578 0.564458 0.491218
vt 0.555415 0.000000
vt 0.625000 0.000000
vt 0.625000 0.250000
vt 0.555415 0.250000
vt 0.625000 0.250000
vt 0.555415 0.250000
vt 0.555415 0.500000
vt 0.625000 0.500000
vt 0.625000 0.750000
vt 0.555415 0.750000
vt 0.625000 1.000000
vt 0.555415 1.000000
vt 0.125000 0.500000
vt 0.375000 0.500000
vt 0.375000 0.750000
vt 0.125000 0.750000
vt 0.875000 0.500000
vt 0.875000 0.750000
vt 0.375000 1.000000
vt 0.375000 0.250000
vt 0.375000 0.000000
vt 0.625000 0.500000
vt 0.555415 0.500000
vt 0.875000 0.500000
vt 0.555415 0.000000
vt 0.625000 0.000000
vt 0.625000 0.250000
vt 0.555415 0.250000
vt 0.625000 0.250000
vt 0.555415 0.250000
vt 0.555415 0.500000
vt 0.625000 0.500000
vt 0.625000 0.750000
vt 0.555415 0.750000
vt 0.625000 1.000000
vt 0.555415 1.000000
vt 0.125000 0.500000
vt 0.375000 0.500000
vt 0.375000 0.750000
vt 0.125000 0.750000
vt 0.875000 0.500000
vt 0.875000 0.750000
vt 0.375000 1.000000
vt 0.375000 0.250000
vt 0.375000 0.000000
vt 0.625000 0.500000
vt 0.555415 0.500000
vt 0.875000 0.500000
vt 0.555415 0.000000
vt 0.625000 0.000000
vt 0.625000 0.250000
vt 0.555415 0.250000
vt 0.625000 0.250000
vt 0.555415 0.250000
vt 0.555415 0.500000
vt 0.625000 0.500000
vt 0.625000 0.750000
vt 0.555415 0.750000
vt 0.625000 1.000000
vt 0.555415 1.000000
vt 0.125000 0.500000
vt 0.375000 0.500000
vt 0.375000 0.750000
vt 0.125000 0.750000
vt 0.875000 0.500000
vt 0.875000 0.750000
vt 0.375000 1.000000
vt 0.375000 0.250000
vt 0.375000 0.000000
vt 0.625000 0.500000
vt 0.555415 0.500000
vt 0.875000 0.500000
vt 0.555415 0.000000
vt 0.625000 0.000000
vt 0.625000 0.250000
vt 0.555415 0.250000
vt 0.625000 0.250000
vt 0.555415 0.250000
vt 0.555415 0.500000
vt 0.625000 0.500000
vt 0.625000 0.750000
vt 0.555415 0.750000
vt 0.625000 1.000000
vt 0.555415 1.000000
vt 0.125000 0.500000
vt 0.375000 0.500000
vt 0.375000 0.750000
vt 0.125000 0.750000
vt 0.875000 0.500000
vt 0.875000 0.750000
vt 0.375000 1.000000
vt 0.375000 0.250000
vt 0.375000 0.000000
vt 0.625000 0.500000
vt 0.555415 0.500000
vt 0.875000 0.500000
vt -17.125980 17.125980
vt 17.125980 -17.125980
vt 17.125980 17.125980
vt -17.125980 -17.125980
vt -17.125980 4.921260
vt -6.602714 9.842520
vt -17.125980 19.685040
vt 17.125980 4.921260
vt 6.602714 9.842520
vt 6.602714 19.685040
vt 17.125980 19.685040
vt -6.602714 19.685040
vt -17.125980 4.921260
vt -6.602714 9.842520
vt -17.125980 19.685040
vt 6.602714 9.842520
vt -6.602714 19.685040
vt 17.125980 4.921260
vt 17.125980 19.685040
vt 6.602714 19.685040
vt -17.125980 19.685040
vt -6.602714 9.842520
vt -6.602714 19.685040
vt -17.125980 4.921260
vt 6.602714 9.842520
vt 17.125980 4.921260
vt 6.602714 19.685040
vt 17.125980 19.685040
vt 17.125980 4.921260
vt 6.602714 9.842520
vt -17.125980 4.921260
vt 17.125980 19.685040
vt 6.602714 19.685040
vt -6.602714 9.842520
vt -17.125980 19.685040
vt -6.602714 19.685040
vt -13.205430 -6.602714
vt -17.125980 -6.602714
vt -13.205430 -13.205430
vt -17.125980 -17.125980
vt -6.602714 -17.125980
vt -6.602714 -13.205430
vt 17.125980 -17.125980
vt 6.602714 -13.205430
vt 6.602714 -17.125980
vt 13.205430 -13.205430
vt 13.205430 -6.602714
vt 17.125980 -6.602714
vt 17.125980 6.602714
vt 13.205430 13.205430
vt 13.205430 6.602714
vt 17.125980 17.125980
vt 6.602714 17.125980
vt 6.602714 13.205430
vt -13.205430 6.602714
vt -17.125980 17.125980
vt -17.125980 6.602714
vt -13.205430 13.205430
vt -6.602714 17.125980
vt -6.602714 13.205430
vt 13.205430 3.937008
vt 6.602714 9.842520
vt -13.205430 3.937008
vt 13.205430 19.685040
vt 6.602714 19.685040
vt -6.602714 9.842520
vt -13.205430 19.685040
vt -6.602714 19.685040
vt -13.205430 3.937008
vt -6.602714 9.842520
vt -13.205430 19.685040
vt 13.205430 3.937008
vt 6.602714 9.842520
vt 6.602714 19.685040
vt 13.205430 19.685040
vt -6.602714 19.685040
vt 13.205430 3.937008
vt 6.602714 9.842520
vt -13.205430 3.937008
vt 13.205430 19.685040
vt 6.602714 19.685040
vt -6.602714 9.842520
vt -13.205430 19.685040
vt -6.602714 19.685040
vt -13.205430 19.685040
vt -6.602714 9.842520
vt -6.602714 19.685040
vt -13.205430 3.937008
vt 6.602714 9.842520
vt 13.205430 3.937008
vt 6.602714 19.685040
vt 13.205430 19.685040
vt 17.125980 -6.602714
vt 13.205430 6.602714
vt 13.205430 -6.602714
vt 17.125980 6.602714
vt -13.205430 19.685040
vt -17.125980 9.842520
vt -13.205430 9.842520
vt -17.125980 19.685040
vt 17.125980 19.685040
vt 13.205430 9.842520
vt 17.125980 9.842520
vt 13.205430 19.685040
vt -13.205430 -6.602714
vt -17.125980 6.602714
vt -17.125980 -6.602714
vt -13.205430 6.602714
vt -13.205430 19.685040
vt -17.125980 9.842520
vt -13.205430 9.842520
vt -17.125980 19.685040
vt 17.125980 19.685040
vt 13.205430 9.842520
vt 17.125980 9.842520
vt 13.205430 19.685040
vt 6.602714 -17.125980
vt -6.602714 -13.205430
vt -6.602714 -17.125980
vt 6.602714 -13.205430
vt 13.205430 19.685040
vt 17.125980 9.842520
vt 17.125980 19.685040
vt 13.205430 9.842520
vt -13.205430 9.842520
vt -17.125980 19.685040
vt -17.125980 9.842520
vt -13.205430 19.685040
vt 6.602714 13.205430
vt -6.602714 17.125980
vt -6.602714 13.205430
vt 6.602714 17.125980
vt -17.125980 19.685040
vt -13.205430 9.842520
vt -13.205430 19.685040
vt -17.125980 9.842520
vt 17.125980 9.842520
vt 13.205430 19.685040
vt 13.205430 9.842520
vt 17.125980 19.685040
vt 9.300363 -9.300363
vt -9.300363 9.300363
vt -9.300363 -9.300363
vt 9.300363 9.300363
vt -13.205430 -13.205430
vt -13.205430 13.205430
vt 13.205430 -13.205430
vt 13.205430 13.205430
vt -17.125980 -0.000000
vt 17.125980 -0.000000
vt 17.125980 -0.000000
vt -17.125980 -0.000000
vt -17.125980 -0.000000
vt 17.125980 -0.000000
vt 17.125980 -0.000000
vt -17.125980 -0.000000
vn -1.0000 0.0000 0.0000
vn -0.9962 0.0000 -0.0872
vn 1.0000 0.0000 0.0000
vn 0.0000 0.0000 1.0000
vn 0.0000 -1.0000 0.0000
vn 0.0000 1.0000 0.0000
vn 0.0000 0.0000 -1.0000
vn 0.0000 -0.9189 -0.3945
vn 0.0000 0.9189 -0.3945
vn 0.9962 0.0000 -0.0872
vn -0.0872 0.0000 0.9962
vn -0.3945 -0.9189 0.0000
vn -0.3945 0.9189 0.0000
vn -0.0872 0.0000 -0.9962
vn 0.9962 0.0000 0.0872
vn 0.0000 -0.9189 0.3945
vn 0.0000 0.9189 0.3945
vn -0.9962 0.0000 0.0872
vn 0.0872 0.0000 -0.9962
vn 0.3945 -0.9189 0.0000
vn 0.3945 0.9189 0.0000
vn 0.0872 0.0000 0.9962
vn 0.1475 0.9891 0.0000
vn 0.0000 0.9891 -0.1475
vn -0.1475 0.9891 0.0000
vn 0.0000 0.9891 0.1475
vn -0.2159 0.9764 0.0000
vn -0.0649 -0.0000 0.9979
vn -0.0649 0.0000 -0.9979
vn 0.2159 0.9764 0.0000
vn 0.0649 0.0000 -0.9979
vn 0.0649 -0.0000 0.9979
vn 0.0000 0.9764 -0.2159
vn 0.9999 -0.0000 -0.0102
vn -0.9999 -0.0000 -0.0102
vn 0.0000 0.9764 0.2159
vn 0.9999 -0.0000 0.0102
vn -0.9999 -0.0000 0.0102
vn -0.9997 -0.0226 -0.0000
vn 0.0000 -0.0226 0.9997
vn 0.9997 -0.0226 -0.0000
vn 0.0000 -0.0226 -0.9997
usemtl stone.001
s off
f 65/1/1 58/2/1 60/3/1 66/4/1
f 66/4/2 60/3/2 69/5/2 71/6/2
f 67/7/3 64/8/3 62/9/3 68/10/3
f 68/10/4 62/9/4 58/11/4 65/12/4
f 59/13/5 63/14/5 61/15/5 57/16/5
f 64/8/6 60/17/6 58/18/6 62/9/6
f 61/15/4 68/10/4 65/12/4 57/19/4
f 63/14/3 67/7/3 68/10/3 61/15/3
f 59/20/7 66/4/7 67/7/7 63/14/7
f 57/21/1 65/1/1 66/4/1 59/20/1
f 71/6/7 69/5/7 70/22/7 72/23/7
f 67/7/8 66/4/8 71/6/8 72/23/8
f 60/17/9 64/8/9 70/22/9 69/24/9
f 64/8/10 67/7/10 72/23/10 70/22/10
f 81/25/4 74/26/4 76/27/4 82/28/4
f 82/28/11 76/27/11 85/29/11 87/30/11
f 83/31/7 80/32/7 78/33/7 84/34/7
f 84/34/3 78/33/3 74/35/3 81/36/3
f 75/37/5 79/38/5 77/39/5 73/40/5
f 80/32/6 76/41/6 74/42/6 78/33/6
f 77/39/3 84/34/3 81/36/3 73/43/3
f 79/38/7 83/31/7 84/34/7 77/39/7
f 75/44/1 82/28/1 83/31/1 79/38/1
f 73/45/4 81/25/4 82/28/4 75/44/4
f 87/30/1 85/29/1 86/46/1 88/47/1
f 83/31/12 82/28/12 87/30/12 88/47/12
f 76/41/13 80/32/13 86/46/13 85/48/13
f 80/32/14 83/31/14 88/47/14 86/46/14
f 97/49/3 90/50/3 92/51/3 98/52/3
f 98/52/15 92/51/15 101/53/15 103/54/15
f 99/55/1 96/56/1 94/57/1 100/58/1
f 100/58/7 94/57/7 90/59/7 97/60/7
f 91/61/5 95/62/5 93/63/5 89/64/5
f 96/56/6 92/65/6 90/66/6 94/57/6
f 93/63/7 100/58/7 97/60/7 89/67/7
f 95/62/1 99/55/1 100/58/1 93/63/1
f 91/68/4 98/52/4 99/55/4 95/62/4
f 89/69/3 97/49/3 98/52/3 91/68/3
f 103/54/4 101/53/4 102/70/4 104/71/4
f 99/55/16 98/52/16 103/54/16 104/71/16
f 92/65/17 96/56/17 102/70/17 101/72/17
f 96/56/18 99/55/18 104/71/18 102/70/18
f 113/73/7 106/74/7 108/75/7 114/76/7
f 114/76/19 108/75/19 117/77/19 119/78/19
f 115/79/4 112/80/4 110/81/4 116/82/4
f 116/82/1 110/81/1 106/83/1 113/84/1
f 107/85/5 111/86/5 109/87/5 105/88/5
f 112/80/6 108/89/6 106/90/6 110/81/6
f 109/87/1 116/82/1 113/84/1 105/91/1
f 111/86/4 115/79/4 116/82/4 109/87/4
f 107/92/3 114/76/3 115/79/3 111/86/3
f 105/93/7 113/73/7 114/76/7 107/92/7
f 119/78/3 117/77/3 118/94/3 120/95/3
f 115/79/20 114/76/20 119/78/20 120/95/20
f 108/89/21 112/80/21 118/94/21 117/96/21
f 112/80/22 115/79/22 120/95/22 118/94/22
s 1
f 1/97/5 2/98/5 3/99/5
f 2/98/5 1/97/5 4/100/5
f 5/101/1 6/102/1 7/103/1
f 6/102/1 5/101/1 8/104/1
f 6/102/1 8/104/1 9/105/1
f 9/105/1 8/104/1 10/106/1
f 10/106/1 8/104/1 11/107/1
f 12/108/1 7/103/1 6/102/1
f 8/109/4 13/110/4 11/111/4
f 13/110/4 8/109/4 14/112/4
f 11/111/4 13/110/4 15/113/4
f 16/114/4 14/112/4 8/109/4
f 14/112/4 16/114/4 17/115/4
f 14/112/4 17/115/4 18/116/4
f 17/117/3 19/118/3 20/119/3
f 16/120/3 19/118/3 17/117/3
f 16/120/3 21/121/3 19/118/3
f 22/122/3 21/121/3 16/120/3
f 22/122/3 23/123/3 21/121/3
f 23/123/3 22/122/3 24/124/3
f 5/125/7 25/126/7 22/127/7
f 25/126/7 5/125/7 7/128/7
f 25/126/7 7/128/7 26/129/7
f 27/130/7 22/127/7 25/126/7
f 22/127/7 27/130/7 24/131/7
f 24/131/7 27/130/7 28/132/7
f 29/133/23 23/134/23 30/135/23
f 24/136/23 30/135/23 23/134/23
f 30/135/24 24/136/24 28/137/24
f 30/135/24 28/137/24 31/138/24
f 7/139/24 32/140/24 26/141/24
f 32/140/24 7/139/24 33/142/24
f 33/142/25 7/139/25 34/143/25
f 34/143/25 7/139/25 12/144/25
f 10/145/25 35/146/25 36/147/25
f 11/148/25 35/146/25 10/145/25
f 15/149/26 35/146/26 11/148/26
f 35/146/26 15/149/26 37/150/26
f 38/151/23 17/152/23 20/153/23
f 17/152/23 38/151/23 39/154/23
f 17/152/26 39/154/26 18/155/26
f 18/155/26 39/154/26 40/156/26
f 41/157/7 42/158/7 43/159/7
f 42/158/7 41/157/7 35/160/7
f 42/158/7 35/160/7 37/161/7
f 44/162/7 43/159/7 42/158/7
f 43/159/7 44/162/7 39/163/7
f 39/163/7 44/162/7 40/164/7
f 45/165/1 46/166/1 30/167/1
f 46/166/1 45/165/1 43/168/1
f 46/166/1 43/168/1 47/169/1
f 47/169/1 43/168/1 38/170/1
f 38/170/1 43/168/1 39/171/1
f 29/172/1 30/167/1 46/166/1
f 45/173/4 48/174/4 49/175/4
f 48/174/4 45/173/4 30/176/4
f 48/174/4 30/176/4 31/177/4
f 50/178/4 49/175/4 48/174/4
f 49/175/4 50/178/4 33/179/4
f 33/179/4 50/178/4 32/180/4
f 35/181/3 51/182/3 36/183/3
f 41/184/3 51/182/3 35/181/3
f 41/184/3 52/185/3 51/182/3
f 49/186/3 52/185/3 41/184/3
f 49/186/3 34/187/3 52/185/3
f 34/187/3 49/186/3 33/188/3
f 6/189/27 51/190/27 52/191/27
f 51/190/27 6/189/27 9/192/27
f 34/193/28 6/194/28 52/195/28
f 6/194/28 34/193/28 12/196/28
f 10/197/29 51/198/29 9/199/29
f 51/198/29 10/197/29 36/200/29
f 46/201/30 19/202/30 21/203/30
f 19/202/30 46/201/30 47/204/30
f 38/205/31 19/206/31 47/207/31
f 19/206/31 38/205/31 20/208/31
f 23/209/32 46/210/32 21/211/32
f 46/210/32 23/209/32 29/212/32
f 25/213/33 48/214/33 27/215/33
f 48/214/33 25/213/33 50/216/33
f 32/217/34 25/218/34 26/219/34
f 25/218/34 32/217/34 50/220/34
f 48/221/35 28/222/35 27/223/35
f 28/222/35 48/221/35 31/224/35
f 42/225/36 14/226/36 44/227/36
f 14/226/36 42/225/36 13/228/36
f 15/229/37 42/230/37 37/231/37
f 42/230/37 15/229/37 13/232/37
f 14/233/38 40/234/38 44/235/38
f 40/234/38 14/233/38 18/236/38
f 53/237/6 54/238/6 55/239/6
f 54/238/6 53/237/6 56/240/6
f 45/241/39 55/239/39 43/242/39
f 55/239/40 45/241/40 49/243/40
f 55/239/40 49/243/40 53/237/40
f 53/237/41 49/243/41 56/240/41
f 54/238/39 43/242/39 55/239/39
f 43/242/42 54/238/42 41/244/42
f 41/244/42 54/238/42 56/240/42
f 41/244/41 56/240/41 49/243/41
f 16/114/4 1/245/4 3/246/4
f 1/245/4 16/114/4 8/109/4
f 16/120/3 2/247/3 22/122/3
f 2/247/3 16/120/3 3/248/3
f 5/125/7 2/249/7 4/250/7
f 2/249/7 5/125/7 22/127/7
f 1/251/1 5/101/1 4/252/1
f 5/101/1 1/251/1 8/104/1
