# Blender v2.82 (sub 7) OBJ File: ''
# www.blender.org
mtllib mountain.mtl
o mountain_Circle.001
v 0.500000 0.000000 -0.500000
v -0.500000 0.000000 -0.500000
v -0.500000 0.000000 0.500000
v 0.500000 0.000000 0.500000
v -0.370911 0.283218 -0.063892
v 0.131941 0.283218 -0.354507
v -0.426355 0.262379 0.240788
v -0.038043 0.289352 0.394468
v 0.353082 0.275482 0.387725
v 0.383137 0.286030 -0.225830
v -0.400658 0.283218 -0.231320
v 0.152989 0.277125 -0.428942
v -0.313652 0.478587 -0.089824
v 0.015564 0.477705 -0.239284
v -0.325060 0.477705 0.130050
v -0.071157 0.487452 0.270441
v 0.215326 0.477705 0.088447
v 0.179861 0.477705 -0.178683
v 0.008665 0.283218 -0.283262
v 0.109198 0.477705 -0.293399
v -0.303445 0.476799 0.203096
v -0.019943 0.487452 0.297092
v 0.286387 0.494578 0.209933
v 0.293064 0.483330 -0.180752
v -0.172223 1.011596 -0.028652
v -0.000836 1.001599 -0.161307
v -0.181262 1.004455 0.083292
v -0.040636 1.003949 0.169129
v 0.135321 1.001599 0.060196
v 0.111184 1.001599 -0.121609
v -0.372225 0.283218 0.127531
vt 0.933013 0.250000
vt 0.066987 0.750000
vt 0.933013 0.750000
vt 0.180292 0.315416
vt 0.493995 0.259227
vt 0.278017 0.404499
vt 0.933013 0.750000
vt 0.933013 0.250000
vt 0.500000 0.000000
vt 0.500000 0.000000
vt 0.066987 0.250000
vt 0.500000 1.000000
vt 0.500000 1.000000
vt 0.066987 0.750000
vt 0.421622 0.823916
vt 0.180292 0.315416
vt 0.180292 0.684584
vt 0.500000 0.869167
vt 0.711653 0.384706
vt 0.693358 0.644517
vt 0.711653 0.384706
vt 0.819708 0.684583
vt 0.819708 0.315417
vt 0.819708 0.315417
vt 0.500000 0.130833
vt 0.500000 0.869167
vt 0.819708 0.684583
vt 0.500000 0.130833
vt 0.180292 0.684584
vt 0.550383 0.729498
vt 0.000000 0.000000
vt 0.693358 0.644517
vt 0.493995 0.259227
vt 0.276123 0.571136
vt 0.278017 0.404499
vt 0.550383 0.729498
vt 0.276123 0.571136
vt 0.066987 0.250000
vt 0.180292 0.440688
vt 0.000000 0.000000
vn 0.0000 -1.0000 0.0000
vn -0.0540 0.9981 0.0284
vn 0.8724 0.4861 0.0511
vn -0.3007 0.7117 0.6349
vn 0.0000 0.2484 -0.9687
vn 0.4528 0.7064 -0.5440
vn 0.0000 0.3426 0.9395
vn -0.9323 0.3601 -0.0349
vn -0.0061 0.9988 -0.0478
vn -0.1867 0.9819 0.0332
vn 0.0268 0.9969 -0.0740
vn 0.9811 0.1428 -0.1303
vn 0.9429 0.3291 0.0518
vn -0.3648 0.3601 0.8586
vn -0.4893 0.2088 -0.8467
vn 0.4184 0.3796 -0.8251
vn 0.2407 0.4104 0.8796
vn -0.4032 0.2154 -0.8894
vn -0.9340 0.2229 0.2792
vn -0.9602 0.2750 -0.0487
vn -0.0534 0.9929 -0.1066
vn -0.0495 0.9988 0.0066
vn 0.0000 1.0000 -0.0000
vn 0.0264 0.9994 0.0211
vn -0.4795 0.2066 0.8529
vn -0.6055 0.0986 -0.7897
vn 0.3424 0.1460 -0.9282
vn 0.5347 0.1321 0.8346
vn -0.9630 0.2625 -0.0610
vn -0.1010 0.9758 0.1942
vn 0.9257 0.3782 0.0000
vn -0.2294 0.7110 -0.6647
vn 0.0297 0.3908 0.9200
vn -0.9628 0.2702 0.0000
vn -0.0562 0.9937 -0.0972
vn -0.3638 0.9315 -0.0025
vn 0.9100 0.4146 0.0036
vn -0.2971 0.4429 0.8459
vn 0.4892 0.3130 -0.8141
vn 0.0358 0.6363 0.7706
vn -0.5001 0.0317 -0.8654
vn -0.8440 0.4267 -0.3249
vn -0.9718 0.2358 -0.0067
vn 0.0153 0.9994 -0.0294
vn -0.1798 0.9832 -0.0314
vn -0.0490 0.9983 0.0302
vn 0.0395 0.9989 -0.0243
vn -0.0336 0.9976 0.0609
vn -0.5105 0.1945 0.8376
vn -0.4038 0.2093 -0.8906
vn 0.3303 0.1491 -0.9320
vn 0.5234 0.1254 0.8428
vn -0.9646 0.2590 -0.0490
usemtl None
s off
f 4/1/1 2/2/1 1/3/1
f 21/4/2 16/5/2 15/6/2
f 4/1/3 10/7/3 9/8/3
f 3/9/4 8/10/4 7/11/4
f 2/2/5 12/12/5 1/13/5
f 1/13/6 12/12/6 10/7/6
f 4/1/7 8/10/7 3/9/7
f 2/2/8 7/11/8 11/14/8
f 19/15/9 12/12/9 11/14/9
f 7/16/10 5/17/10 11/14/10
f 6/18/11 10/7/11 12/12/11
f 17/19/12 30/20/12 29/21/12
f 10/22/13 23/23/13 9/24/13
f 8/25/14 21/4/14 7/16/14
f 19/15/15 20/26/15 6/18/15
f 6/18/16 24/27/16 10/22/16
f 8/25/17 23/23/17 22/28/17
f 19/15/18 13/29/18 14/30/18
f 31/31/19 21/4/19 15/6/19
f 5/17/20 15/6/20 13/29/20
f 17/19/21 22/28/21 23/23/21
f 17/19/22 24/27/22 18/32/22
f 18/32/23 20/26/23 14/30/23
f 28/33/24 29/21/24 25/34/24
f 16/5/25 27/35/25 15/6/25
f 14/30/26 25/34/26 26/36/26
f 14/30/27 30/20/27 18/32/27
f 17/19/28 28/33/28 16/5/28
f 13/37/29 27/35/29 25/34/29
f 4/1/1 3/38/1 2/2/1
f 21/4/30 22/28/30 16/5/30
f 4/1/31 1/3/31 10/7/31
f 2/2/32 11/14/32 12/12/32
f 4/1/33 9/8/33 8/10/33
f 2/2/34 3/38/34 7/11/34
f 11/14/23 5/17/23 19/15/23
f 19/15/35 6/18/35 12/12/35
f 7/16/36 31/39/36 5/17/36
f 17/19/12 18/32/12 30/20/12
f 10/22/37 24/27/37 23/23/37
f 8/25/38 22/28/38 21/4/38
f 19/15/15 14/30/15 20/26/15
f 6/18/39 20/26/39 24/27/39
f 8/25/40 9/24/40 23/23/40
f 19/15/41 5/17/41 13/29/41
f 31/31/42 7/40/42 21/4/42
f 5/17/43 31/31/43 15/6/43
f 17/19/44 16/5/44 22/28/44
f 17/19/45 23/23/45 24/27/45
f 18/32/46 24/27/46 20/26/46
f 30/20/23 26/36/23 29/21/23
f 26/36/47 25/34/47 29/21/47
f 25/34/48 27/35/48 28/33/48
f 16/5/49 28/33/49 27/35/49
f 14/30/50 13/37/50 25/34/50
f 14/30/51 26/36/51 30/20/51
f 17/19/52 29/21/52 28/33/52
f 13/37/53 15/6/53 27/35/53
